<svg xmlns="http://www.w3.org/2000/svg" viewBox="0 0 1200 930" width="1200" height="930" role="img" aria-label="Illustration of a ceiling projector, a laptop showing an equipment dashboard and a toolbox on a campus equipment desk">
  <defs>
    <linearGradient id="bg" x1="0" y1="0" x2="0" y2="1">
      <stop offset="0" stop-color="#e6eefa"/>
      <stop offset="1" stop-color="#c3d5ee"/>
    </linearGradient>
    <linearGradient id="screen" x1="0" y1="0" x2="1" y2="1">
      <stop offset="0" stop-color="#2A3F63"/>
      <stop offset="1" stop-color="#385585"/>
    </linearGradient>
    <linearGradient id="beam" x1="0" y1="0" x2="1" y2="0">
      <stop offset="0" stop-color="#ffffff" stop-opacity="0.6"/>
      <stop offset="1" stop-color="#ffffff" stop-opacity="0.08"/>
    </linearGradient>
    <clipPath id="lap"><rect x="604" y="444" width="312" height="187" rx="8"/></clipPath>
  </defs>

  <!-- Background -->
  <rect width="1200" height="930" fill="url(#bg)"/>
  <circle cx="1010" cy="170" r="230" fill="#ffffff" opacity="0.35"/>
  <circle cx="140" cy="640" r="280" fill="#385585" opacity="0.07"/>

  <!-- Projector beam + projection screen -->
  <polygon points="418,128 418,152 652,336 652,56" fill="url(#beam)"/>
  <rect x="650" y="56" width="470" height="280" rx="16" fill="#ffffff" stroke="#cbd5e1" stroke-width="4"/>
  <rect x="684" y="88" width="170" height="16" rx="8" fill="#385585"/>
  <rect x="684" y="114" width="104" height="10" rx="5" fill="#cbd5e1"/>
  <rect x="940" y="84" width="148" height="30" rx="15" fill="#d1fae5"/>
  <circle cx="960" cy="99" r="6" fill="#10b981"/>
  <rect x="974" y="94" width="86" height="10" rx="5" fill="#10b981" opacity="0.55"/>
  <line x1="684" y1="300" x2="1086" y2="300" stroke="#e2e8f0" stroke-width="3"/>
  <rect x="700" y="210" width="46" height="90" rx="6" fill="#8aa4d2"/>
  <rect x="770" y="160" width="46" height="140" rx="6" fill="#385585"/>
  <rect x="840" y="230" width="46" height="70" rx="6" fill="#8aa4d2"/>
  <rect x="910" y="140" width="46" height="160" rx="6" fill="#385585"/>
  <rect x="980" y="185" width="46" height="115" rx="6" fill="#3b82f6"/>

  <!-- Ceiling-mounted projector -->
  <rect x="285" y="0" width="14" height="92" fill="#94a3b8"/>
  <rect x="262" y="84" width="60" height="14" rx="7" fill="#64748b"/>
  <rect x="180" y="98" width="240" height="96" rx="24" fill="#ffffff"/>
  <path d="M180 150 H420 V170 a24 24 0 0 1 -24 24 H204 a24 24 0 0 1 -24 -24 Z" fill="#e2e8f0"/>
  <rect x="206" y="120" width="70" height="8" rx="4" fill="#cbd5e1"/>
  <rect x="206" y="136" width="70" height="8" rx="4" fill="#cbd5e1"/>
  <circle cx="214" cy="172" r="7" fill="#10b981"/>
  <circle cx="392" cy="140" r="30" fill="#2A3F63"/>
  <circle cx="392" cy="140" r="19" fill="#3b82f6"/>
  <circle cx="385" cy="133" r="6" fill="#ffffff" opacity="0.75"/>

  <g transform="translate(0 64)">
  <!-- Desk -->
  <rect x="0" y="668" width="1200" height="262" fill="#2f4a77"/>
  <rect x="0" y="668" width="1200" height="12" fill="#4a6aa3"/>
  <ellipse cx="760" cy="684" rx="270" ry="12" fill="#1c2b45" opacity="0.35"/>
  <ellipse cx="1088" cy="680" rx="92" ry="9" fill="#1c2b45" opacity="0.35"/>

  <!-- Laptop -->
  <rect x="590" y="430" width="340" height="215" rx="16" fill="url(#screen)"/>
  <circle cx="760" cy="437" r="2.5" fill="#94a3b8"/>
  <g clip-path="url(#lap)">
    <rect x="604" y="444" width="312" height="187" fill="#f8fafc"/>
    <rect x="604" y="444" width="64" height="187" fill="#385585"/>
    <circle cx="636" cy="474" r="12" fill="#ffffff" opacity="0.9"/>
    <rect x="618" y="502" width="36" height="8" rx="4" fill="#ffffff" opacity="0.6"/>
    <rect x="618" y="524" width="36" height="8" rx="4" fill="#ffffff" opacity="0.6"/>
    <rect x="618" y="546" width="36" height="8" rx="4" fill="#ffffff" opacity="0.6"/>
    <rect x="668" y="444" width="248" height="30" fill="#ffffff"/>
    <rect x="684" y="455" width="90" height="9" rx="4.5" fill="#cbd5e1"/>
    <rect x="684" y="490" width="68" height="46" rx="8" fill="#eff4fa"/>
    <rect x="692" y="500" width="24" height="8" rx="4" fill="#94a3b8"/>
    <rect x="692" y="514" width="36" height="14" rx="5" fill="#385585"/>
    <rect x="762" y="490" width="68" height="46" rx="8" fill="#eff4fa"/>
    <rect x="770" y="500" width="24" height="8" rx="4" fill="#94a3b8"/>
    <rect x="770" y="514" width="36" height="14" rx="5" fill="#10b981"/>
    <rect x="840" y="490" width="68" height="46" rx="8" fill="#eff4fa"/>
    <rect x="848" y="500" width="24" height="8" rx="4" fill="#94a3b8"/>
    <rect x="848" y="514" width="36" height="14" rx="5" fill="#f59e0b"/>
    <rect x="684" y="550" width="224" height="22" rx="6" fill="#ffffff" stroke="#e2e8f0"/>
    <rect x="694" y="557" width="92" height="8" rx="4" fill="#cbd5e1"/>
    <rect x="848" y="555" width="52" height="12" rx="6" fill="#d1fae5"/>
    <rect x="684" y="578" width="224" height="22" rx="6" fill="#ffffff" stroke="#e2e8f0"/>
    <rect x="694" y="585" width="76" height="8" rx="4" fill="#cbd5e1"/>
    <rect x="848" y="583" width="52" height="12" rx="6" fill="#fef3c7"/>
    <rect x="684" y="606" width="224" height="22" rx="6" fill="#ffffff" stroke="#e2e8f0"/>
    <rect x="694" y="613" width="104" height="8" rx="4" fill="#cbd5e1"/>
    <rect x="848" y="611" width="52" height="12" rx="6" fill="#dbeafe"/>
  </g>
  <path d="M540 645 H980 L960 668 H560 Z" fill="#cbd5e1"/>
  <rect x="710" y="645" width="100" height="8" rx="4" fill="#94a3b8"/>

  <!-- Toolbox -->
  <path d="M1060 566 V548 a10 10 0 0 1 10 -10 H1106 a10 10 0 0 1 10 10 V566" fill="none" stroke="#92400e" stroke-width="8" stroke-linecap="round"/>
  <rect x="1010" y="566" width="156" height="102" rx="12" fill="#f59e0b"/>
  <path d="M1010 578 a12 12 0 0 1 12 -12 H1154 a12 12 0 0 1 12 12 V600 H1010 Z" fill="#fbbf24"/>
  <rect x="1078" y="590" width="20" height="22" rx="4" fill="#92400e"/>
  <rect x="1030" y="626" width="72" height="28" rx="6" fill="#ffffff"/>
  <text x="1066" y="646" text-anchor="middle" font-family="Inter, Arial, sans-serif" font-size="15" font-weight="700" fill="#2A3F63">EQ-014</text>

  <!-- Floating badges -->
  <circle cx="566" cy="420" r="36" fill="#10b981" stroke="#ffffff" stroke-width="8"/>
  <path d="M549 421 l12 12 l22 -24" fill="none" stroke="#ffffff" stroke-width="8" stroke-linecap="round" stroke-linejoin="round"/>
  <rect x="950" y="394" width="170" height="52" rx="26" fill="#1c2b45" opacity="0.12"/>
  <rect x="950" y="388" width="170" height="52" rx="26" fill="#ffffff"/>
  <circle cx="980" cy="414" r="13" fill="#10b981"/>
  <path d="M974 414 l5 5 l9 -10" fill="none" stroke="#ffffff" stroke-width="3.5" stroke-linecap="round" stroke-linejoin="round"/>
  <text x="1004" y="421" font-family="Inter, Arial, sans-serif" font-size="20" font-weight="700" fill="#2A3F63">Approved</text>
  </g>
</svg>
